# xmcd
#
# Track frame offsets:
#	183
#	19013
#	31885
#	47110
#	72605
#	96743
#	112070
#	130673
#	164095
#	177488
#	196708
#	211685
#	238200
#	257258
#	275330
#
# Disc length: 4020 seconds
#
# Revision: 1
# Processed by: cddbd v1.4PL0 Copyright (c) Steve Scherf et al.
# Submitted via: audiograbber 1.81.03
#
DISCID=db0fb20f
DTITLE=Various Artist - Cooking With The Blues (BEECD 13)
DYEAR=1994
DGENRE=Blues
TTITLE0=Roy Gaines and The Crusaders - First Rule Of Cheating
TTITLE1=King Biscuit and The Ronnie Hawkins Band - Hoodoo Party
TTITLE2=King Curtis - Soul Groove Part 2
TTITLE3=The Mighty Houserockers - Play The Blues For You
TTITLE4=Buddy Guy and Junior Wells - Country Girl
TTITLE5=Homesick James - Lonesome Road
TTITLE6=Troyce Key and J.J. Malone - Sweet Taters And Possum Meat
TTITLE7=U.P. Wilson and Paul Orta - Alibi Blues
TTITLE8=Jimmy Reed - Hard Walking Hanna
TTITLE9=Sonny Boy Williamson - Don't Start Me To Talkin'
TTITLE10=Greg 'Finger' Taylor With Anson Funderburgh and The Rockets - Soul Survi
TTITLE10=vor
TTITLE11=Mississippi Fred McDowell - 61 Highway
TTITLE12=Brian Knight ft Peter Green, Ian Stewart and Charlie Watts - Trouble In 
TTITLE12=Mind
TTITLE13=Todd Sharpville ft Paul Lamb - All Night Long
TTITLE14=Earl Hooker - Two Bugs In A Rug
EXTD=
EXTT0=
EXTT1=
EXTT2=
EXTT3=
EXTT4=
EXTT5=
EXTT6=
EXTT7=
EXTT8=
EXTT9=
EXTT10=
EXTT11=
EXTT12=
EXTT13=
EXTT14=
PLAYORDER=
